<?xml version="1.0" encoding="UTF-8"?> <svg xmlns="http://www.w3.org/2000/svg" id="Capa_1" version="1.1" viewBox="0 0 355.7 164.2"><defs><style> .st0 { fill: #5e1415; } </style></defs><g><path class="st0" d="M139.8,88l-.9-4.5s0,0,0-.1c0,0,0,0-.1,0h-6.5s0,0-.1,0c0,0,0,0,0,.1l-.9,4.5c0,.2-.2.3-.4.3h-1.8c-.1,0-.2,0-.3-.1,0,0,0-.2,0-.3l5.4-24.5c0-.2.2-.3.4-.3h2.2c.2,0,.4.1.4.3l5.5,24.5h0c0,.3-.1.4-.3.4h-1.9c-.2,0-.3-.1-.4-.3ZM132.6,81.3h5.7c0,0,.1,0,.1-.1l-2.9-14.1c0,0,0-.1,0-.1s0,0,0,.1l-2.9,14.1c0,0,0,.1.1.1Z"></path><path class="st0" d="M145.3,86.8c-1.1-1.2-1.7-2.7-1.7-4.6v-.8c0-.2.1-.4.4-.4h1.8c.2,0,.4.1.4.4v.7c0,1.3.3,2.3,1,3.1s1.5,1.2,2.5,1.2,1.8-.4,2.5-1.1c.7-.7,1-1.7,1-2.9s-.2-1.5-.5-2.1c-.3-.6-.7-1.1-1.3-1.5-.5-.4-1.4-1.1-2.6-2-1.2-.9-2.1-1.6-2.8-2.3-.7-.6-1.3-1.4-1.7-2.3-.4-.9-.7-1.9-.7-3.1,0-1.9.5-3.4,1.6-4.4,1.1-1.1,2.5-1.6,4.2-1.6s3.3.6,4.4,1.8c1.1,1.2,1.6,2.8,1.6,4.7v.9c0,.2-.1.4-.4.4h-1.8c-.2,0-.4-.1-.4-.4v-.9c0-1.3-.3-2.3-1-3.1-.6-.8-1.5-1.2-2.5-1.2s-1.8.3-2.4,1c-.6.7-.9,1.6-.9,2.9s.1,1.4.4,2,.7,1.1,1.2,1.6,1.4,1.2,2.4,2c1.4,1.1,2.5,1.9,3.2,2.6.7.7,1.3,1.4,1.6,2.2s.6,1.7.6,2.8c0,2-.6,3.5-1.7,4.7-1.1,1.2-2.6,1.8-4.4,1.8s-3.2-.6-4.3-1.8Z"></path><path class="st0" d="M160.8,86.9c-1.1-1.2-1.7-2.7-1.7-4.6v-13.2c0-1.9.6-3.4,1.7-4.6,1.1-1.2,2.6-1.7,4.5-1.7s3.4.6,4.5,1.7,1.7,2.7,1.7,4.6v13.2c0,1.9-.6,3.4-1.7,4.6-1.2,1.2-2.7,1.7-4.5,1.7s-3.3-.6-4.5-1.7ZM167.9,85.3c.7-.7,1-1.7,1-2.8v-13.4c0-1.2-.3-2.1-1-2.9-.7-.7-1.6-1.1-2.7-1.1s-2,.4-2.6,1.1c-.7.7-1,1.7-1,2.9v13.4c0,1.1.3,2.1,1,2.8.7.7,1.5,1.1,2.6,1.1s2-.4,2.7-1.1Z"></path><path class="st0" d="M177.1,86.9c-1.1-1.1-1.7-2.6-1.7-4.5v-13.3c0-1.9.6-3.4,1.7-4.5,1.1-1.1,2.6-1.7,4.4-1.7s3.4.6,4.5,1.7,1.7,2.6,1.7,4.5v.6c0,.2-.1.4-.4.4h-1.9c-.2.1-.4,0-.4-.3v-.9c0-1.1-.3-2-1-2.7-.6-.7-1.5-1-2.6-1s-1.9.3-2.6,1c-.7.7-1,1.6-1,2.7v13.7c0,1.1.3,2,1,2.7s1.5,1,2.6,1,1.9-.3,2.6-1,1-1.6,1-2.7v-.9c0-.2.1-.4.4-.4h1.9c.2.1.4.2.4.5v.6c0,1.9-.6,3.4-1.7,4.5s-2.6,1.7-4.5,1.7-3.3-.6-4.4-1.7Z"></path><path class="st0" d="M192.1,88v-24.5c0-.2.1-.4.4-.4h1.8c.2,0,.4.1.4.4v24.5c0,.2-.1.4-.4.4h-1.8c-.2,0-.4-.1-.4-.4Z"></path><path class="st0" d="M209,88l-.9-4.5s0,0,0-.1c0,0,0,0-.1,0h-6.5s0,0-.1,0c0,0,0,0,0,.1l-.9,4.5c0,.2-.2.3-.4.3h-1.8c-.1,0-.2,0-.3-.1,0,0,0-.2,0-.3l5.4-24.5c0-.2.2-.3.4-.3h2.2c.2,0,.4.1.4.3l5.5,24.5h0c0,.3-.1.4-.3.4h-1.9c-.2,0-.3-.1-.4-.3ZM201.8,81.3h5.7c0,0,.1,0,.1-.1l-2.9-14.1c0,0,0-.1,0-.1s0,0,0,.1l-2.9,14.1c0,0,0,.1.1.1Z"></path><path class="st0" d="M215.3,86.9c-1.1-1.1-1.7-2.6-1.7-4.5v-13.3c0-1.9.6-3.4,1.7-4.5,1.1-1.1,2.6-1.7,4.4-1.7s3.4.6,4.5,1.7,1.7,2.6,1.7,4.5v.6c0,.2-.1.4-.4.4h-1.9c-.2.1-.4,0-.4-.3v-.9c0-1.1-.3-2-1-2.7-.6-.7-1.5-1-2.6-1s-1.9.3-2.6,1c-.7.7-1,1.6-1,2.7v13.7c0,1.1.3,2,1,2.7s1.5,1,2.6,1,1.9-.3,2.6-1,1-1.6,1-2.7v-.9c0-.2.1-.4.4-.4h1.9c.2.1.4.2.4.5v.6c0,1.9-.6,3.4-1.7,4.5s-2.6,1.7-4.5,1.7-3.3-.6-4.4-1.7Z"></path><path class="st0" d="M230.3,88v-24.5c0-.2.1-.4.4-.4h1.8c.2,0,.4.1.4.4v24.5c0,.2-.1.4-.4.4h-1.8c-.2,0-.4-.1-.4-.4Z"></path><path class="st0" d="M239.1,86.9c-1.1-1.2-1.7-2.7-1.7-4.6v-13.2c0-1.9.6-3.4,1.7-4.6,1.1-1.2,2.6-1.7,4.5-1.7s3.4.6,4.5,1.7,1.7,2.7,1.7,4.6v13.2c0,1.9-.6,3.4-1.7,4.6-1.2,1.2-2.7,1.7-4.5,1.7s-3.3-.6-4.5-1.7ZM246.2,85.3c.7-.7,1-1.7,1-2.8v-13.4c0-1.2-.3-2.1-1-2.9-.7-.7-1.6-1.1-2.7-1.1s-2,.4-2.6,1.1c-.7.7-1,1.7-1,2.9v13.4c0,1.1.3,2.1,1,2.8.7.7,1.5,1.1,2.6,1.1s2-.4,2.7-1.1ZM242.1,60.7c0,0,0-.2,0-.3l2.2-3.9c.1-.2.3-.3.4-.3h1.5c.1,0,.2,0,.3.1,0,0,0,.2,0,.3l-2.5,3.9c-.1.2-.3.3-.4.3h-1.2c-.1,0-.2,0-.3-.1Z"></path><path class="st0" d="M264.8,63.1h1.8c.2,0,.4.1.4.4v24.5c0,.2-.1.4-.4.4h-2.1c-.2,0-.3,0-.4-.3l-7-18.6c0,0,0-.1-.1,0,0,0,0,0,0,.1v18.5c0,.2,0,.4-.3.4h-1.8c-.2,0-.4-.1-.4-.4v-24.5c0-.2.1-.4.4-.4h2.1c.2,0,.3,0,.4.3l7.1,18.6c0,0,0,.1.1,0,0,0,0,0,0-.1v-18.5c0-.2.1-.4.4-.4Z"></path><path class="st0" d="M280.4,86.9c-1.1-1.1-1.7-2.6-1.7-4.5v-13.3c0-1.9.6-3.4,1.7-4.5,1.1-1.1,2.6-1.7,4.4-1.7s3.4.6,4.5,1.7,1.7,2.6,1.7,4.5v.6c0,.2-.1.4-.4.4h-1.9c-.2.1-.4,0-.4-.3v-.9c0-1.1-.3-2-1-2.7-.6-.7-1.5-1-2.6-1s-1.9.3-2.6,1c-.7.7-1,1.6-1,2.7v13.7c0,1.1.3,2,1,2.7s1.5,1,2.6,1,1.9-.3,2.6-1,1-1.6,1-2.7v-.9c0-.2.1-.4.4-.4h1.9c.2.1.4.2.4.5v.6c0,1.9-.6,3.4-1.7,4.5s-2.6,1.7-4.5,1.7-3.3-.6-4.4-1.7Z"></path><path class="st0" d="M295.4,88v-24.5c0-.2.1-.4.4-.4h1.8c.2,0,.4.1.4.4v24.5c0,.2-.1.4-.4.4h-1.8c-.2,0-.4-.1-.4-.4Z"></path><path class="st0" d="M307,88l-5.2-24.5h0c0-.3.1-.4.3-.4h2c.2,0,.4.1.4.3l3.9,20.1s0,0,0,0,0,0,0,0l3.8-20.1c0-.2.2-.3.4-.3h1.9c.3,0,.4.1.3.4l-5.2,24.5c0,.2-.2.3-.4.3h-2c-.2,0-.3-.1-.4-.3Z"></path><path class="st0" d="M318.9,88v-24.5c0-.2.1-.4.4-.4h1.8c.2,0,.4.1.4.4v24.5c0,.2-.1.4-.4.4h-1.8c-.2,0-.4-.1-.4-.4Z"></path><path class="st0" d="M326.6,88v-24.5c0-.2.1-.4.4-.4h1.8c.2,0,.4.1.4.4v22.4c0,0,0,.1.1.1h8.2c.2,0,.4.1.4.4v1.5c0,.2-.1.4-.4.4h-10.6c-.2,0-.4-.1-.4-.4Z"></path><path class="st0" d="M129.5,121.5c0,0-.1-.2-.1-.3v-24.3c0-.1,0-.2.1-.3s.2-.1.3-.1h6.9c2.3,0,4.1.6,5.5,1.9,1.4,1.3,2.1,3,2.1,5.1v11c0,2.1-.7,3.8-2.1,5.1-1.4,1.3-3.2,1.9-5.5,1.9h-6.9c-.1,0-.2,0-.3-.1ZM135.5,116.5h1c.5,0,.9-.3,1.3-.7.3-.4.5-1,.5-1.7v-10.2c0-.7-.2-1.3-.5-1.7-.3-.4-.8-.6-1.3-.6h-1c-.1,0-.2,0-.2.2v14.6c0,.1,0,.2.2.2Z"></path><path class="st0" d="M150.1,120.9c-1.1-.6-2-1.5-2.6-2.7-.6-1.2-.9-2.5-.9-4v-17.4c0-.1,0-.2.1-.3,0,0,.2-.1.3-.1h5.1c.1,0,.2,0,.3.1,0,0,.1.2.1.3v18c0,.6.1,1,.4,1.4.3.4.6.5,1.1.5s.8-.2,1.1-.5c.3-.4.4-.8.4-1.4v-18c0-.1,0-.2.1-.3,0,0,.2-.1.3-.1h5.1c.1,0,.2,0,.3.1,0,0,.1.2.1.3v17.4c0,1.5-.3,2.8-.9,4-.6,1.2-1.5,2-2.6,2.7-1.1.6-2.4,1-3.9,1s-2.8-.3-3.9-1Z"></path><path class="st0" d="M173.7,121.2l-.5-3.1c0-.1,0-.2-.2-.2h-3.9c-.1,0-.2,0-.2.2l-.4,3.1c0,.3-.2.4-.5.4h-5.1c-.3,0-.4-.2-.4-.5l5.2-24.3c0-.3.2-.4.5-.4h5.9c.3,0,.4.1.5.4l5.2,24.3h0c0,.4-.1.5-.4.5h-5.2c-.3,0-.4-.1-.5-.4ZM169.9,113.3h2.4c0,0,.1,0,.1-.2l-1.3-8.2c0,0,0-.1-.1-.1s0,0-.1.1l-1.2,8.2c0,.1,0,.2.1.2Z"></path><path class="st0" d="M190.9,121.2l-2.4-9.5c0,0,0-.1-.2-.1h-.5c-.1,0-.2,0-.2.2v9.4c0,.1,0,.2-.1.3s-.2.1-.3.1h-5.1c-.1,0-.2,0-.3-.1s-.1-.2-.1-.3v-24.3c0-.1,0-.2.1-.3s.2-.1.3-.1h7.7c1.4,0,2.6.3,3.7,1s1.9,1.6,2.5,2.8c.6,1.2.9,2.5.9,4s-.2,2.5-.7,3.6c-.5,1.1-1.2,1.9-2.1,2.6,0,0,0,0-.1,0,0,0,0,0,0,.1l3.1,10.5h0c0,.4-.1.5-.4.5h-5.3c-.3,0-.4-.1-.5-.4ZM187.5,101.7v5.1c0,.1,0,.2.2.2h1c.6,0,1.2-.2,1.5-.7.4-.5.6-1.1.6-2s-.2-1.6-.6-2.1c-.4-.5-.9-.7-1.5-.7h-1c-.1,0-.2,0-.2.2Z"></path><path class="st0" d="M214.2,96.5c0,0,.1.2.1.3v4.2c0,.1,0,.2-.1.3s-.2.1-.3.1h-4.5c-.1,0-.2,0-.2.2v19.5c0,.1,0,.2-.1.3s-.2.1-.3.1h-5.1c-.1,0-.2,0-.3-.1s-.1-.2-.1-.3v-19.5c0-.1,0-.2-.2-.2h-4.3c-.1,0-.2,0-.3-.1s-.1-.2-.1-.3v-4.2c0-.1,0-.2.1-.3s.2-.1.3-.1h15.1c.1,0,.2,0,.3.1Z"></path><path class="st0" d="M230,101.4c0,0-.2.1-.3.1h-7.2c-.1,0-.2,0-.2.2v4.5c0,.1,0,.2.2.2h4c.1,0,.2,0,.3.1s.1.2.1.3v4.3c0,.1,0,.2-.1.3s-.2.1-.3.1h-4c-.1,0-.2,0-.2.2v4.6c0,.1,0,.2.2.2h7.2c.1,0,.2,0,.3.1,0,0,.1.2.1.3v4.2c0,.1,0,.2-.1.3s-.2.1-.3.1h-13c-.1,0-.2,0-.3-.1s-.1-.2-.1-.3v-24.3c0-.1,0-.2.1-.3s.2-.1.3-.1h13c.1,0,.2,0,.3.1s.1.2.1.3v4.2c0,.1,0,.2-.1.3Z"></path><path class="st0" d="M244,121.4c0,0-.1-.2-.1-.3v-9.1s-5.1-15.1-5.1-15.1c0,0,0-.1,0-.2,0-.2.1-.3.4-.3h5.4c.2,0,.4.1.5.4l1.8,7.9c0,0,0,.1.1.1s0,0,.1-.1l1.8-7.9c0-.3.2-.4.5-.4h5.4c.1,0,.2,0,.3.1s0,.2,0,.4l-5.1,15.1v.2s0,8.8,0,8.8c0,.1,0,.2-.1.3,0,0-.2.1-.3.1h-5.1c-.1,0-.2,0-.3-.1Z"></path><path class="st0" d="M275.3,97.1c1.1.6,2,1.6,2.6,2.7.6,1.2.9,2.5.9,4v10.3c0,1.7-.4,3.2-1.2,4.4s-1.8,2.1-3.2,2.7c0,0-.1.1-.1.2v3c0,.1,0,.2-.1.3s-.2.1-.3.1h-5.1c-.1,0-.2,0-.3-.1s-.1-.2-.1-.3v-3c0,0,0-.1-.1-.2-1.3-.6-2.4-1.5-3.1-2.7-.8-1.2-1.1-2.7-1.1-4.4v-10.3c0-1.5.3-2.9.9-4s1.5-2.1,2.6-2.7c1.1-.6,2.4-1,3.9-1s2.8.3,3.9,1ZM269.9,114.8c0,.6.1,1,.4,1.4.3.4.6.6,1,.6s.8-.2,1.1-.6c.3-.4.4-.8.4-1.4v-11.6c0-.6-.1-1-.4-1.4s-.6-.6-1.1-.6-.8.2-1,.6c-.3.4-.4.8-.4,1.4v11.6Z"></path><path class="st0" d="M284.5,120.9c-1.1-.6-2-1.5-2.6-2.7-.6-1.2-.9-2.5-.9-4v-17.4c0-.1,0-.2.1-.3,0,0,.2-.1.3-.1h5.1c.1,0,.2,0,.3.1,0,0,.1.2.1.3v18c0,.6.1,1,.4,1.4.3.4.6.5,1.1.5s.8-.2,1.1-.5c.3-.4.4-.8.4-1.4v-18c0-.1,0-.2.1-.3,0,0,.2-.1.3-.1h5.1c.1,0,.2,0,.3.1,0,0,.1.2.1.3v17.4c0,1.5-.3,2.8-.9,4-.6,1.2-1.5,2-2.6,2.7-1.1.6-2.4,1-3.9,1s-2.8-.3-3.9-1Z"></path><path class="st0" d="M298.4,121.5c0,0-.1-.2-.1-.3v-24.3c0-.1,0-.2.1-.3s.2-.1.3-.1h5.1c.1,0,.2,0,.3.1s.1.2.1.3v24.3c0,.1,0,.2-.1.3s-.2.1-.3.1h-5.1c-.1,0-.2,0-.3-.1Z"></path><path class="st0" d="M316.1,121.2l-2.4-9.5c0,0,0-.1-.2-.1h-.5c-.1,0-.2,0-.2.2v9.4c0,.1,0,.2-.1.3s-.2.1-.3.1h-5.1c-.1,0-.2,0-.3-.1s-.1-.2-.1-.3v-24.3c0-.1,0-.2.1-.3s.2-.1.3-.1h7.7c1.4,0,2.6.3,3.7,1s1.9,1.6,2.5,2.8c.6,1.2.9,2.5.9,4s-.2,2.5-.7,3.6c-.5,1.1-1.2,1.9-2.1,2.6,0,0,0,0-.1,0,0,0,0,0,0,.1l3.1,10.5h0c0,.4-.1.5-.4.5h-5.3c-.3,0-.4-.1-.5-.4ZM312.7,101.7v5.1c0,.1,0,.2.2.2h1c.6,0,1.2-.2,1.5-.7.4-.5.6-1.1.6-2s-.2-1.6-.6-2.1c-.4-.5-.9-.7-1.5-.7h-1c-.1,0-.2,0-.2.2Z"></path><path class="st0" d="M325.8,119.9c-1.4-1.3-2.1-3.2-2.1-5.4v-10.9c0-2.3.7-4.1,2.1-5.4,1.4-1.4,3.2-2,5.6-2s4.2.7,5.6,2c1.4,1.4,2.1,3.2,2.1,5.4v10.9c0,2.3-.7,4.1-2.1,5.4s-3.3,2-5.6,2-4.2-.7-5.6-2ZM328.8,94.1c0,0,0-.2,0-.4l2.1-3.6c0-.2.3-.3.5-.3h4c.2,0,.4,0,.4.3s0,.2-.1.3l-2.8,3.6c-.1.2-.3.3-.5.3h-3.2c-.2,0-.3,0-.4-.1ZM332.6,116.2c.3-.4.4-.9.4-1.5v-11.4c0-.6-.2-1.2-.4-1.5-.3-.4-.7-.6-1.2-.6s-.9.2-1.2.6c-.3.4-.4.9-.4,1.5v11.4c0,.6.1,1.2.4,1.5.3.4.7.6,1.2.6s.9-.2,1.2-.6Z"></path><path class="st0" d="M344.5,121c-1.1-.6-2-1.4-2.6-2.4s-.9-2.2-.9-3.5v-1.1c0-.1,0-.2.1-.3,0,0,.2-.1.3-.1h5c.1,0,.2,0,.3.1s.1.2.1.3v.8c0,.6.1,1,.4,1.4.3.3.6.5,1.1.5s.8-.2,1.1-.5c.3-.3.4-.7.4-1.2s-.2-1-.6-1.5c-.4-.4-1.3-1.1-2.6-2.1-1.2-.9-2.2-1.6-2.9-2.3-.8-.7-1.4-1.5-2-2.6-.6-1-.8-2.2-.8-3.5s.3-2.6.9-3.6c.6-1.1,1.5-1.9,2.6-2.4,1.1-.6,2.4-.9,3.8-.9s2.8.3,3.9.9,2,1.4,2.6,2.5c.6,1.1.9,2.3.9,3.7v.9c0,.1,0,.2-.1.3s-.2.1-.3.1h-5c-.1,0-.2,0-.3-.1s-.1-.2-.1-.3v-1c0-.5-.1-1-.4-1.3s-.6-.5-1.1-.5-.8.2-1,.5c-.3.3-.4.8-.4,1.3s.2,1.1.6,1.6c.4.5,1.2,1.2,2.5,2.1,1.5,1.1,2.7,2,3.4,2.7.8.7,1.4,1.5,1.8,2.3.4.9.6,1.9.6,3,0,2.2-.7,3.9-2,5.1-1.4,1.3-3.1,1.9-5.3,1.9s-2.7-.3-3.8-.8Z"></path></g><g><g><g><path class="st0" d="M51.6,16.5c-.2-2.1.7-15.7,1.1-16.5.3.6,1.3,15.1,1.1,16.5-.7,0-1.4,0-2.2,0Z"></path><path class="st0" d="M40.2,2.4c2.7,4.8,5,9.9,7.4,14.9-.7.3-1.4.6-2.1.9-.6-.8-5.4-15-5.3-15.8Z"></path><path class="st0" d="M63.5,20.5c4.1-3.7,8.1-7.5,12.5-10.9-3.4,4.4-7.2,8.4-10.9,12.5-.5-.5-1.1-1.1-1.6-1.7Z"></path><path class="st0" d="M36.3,31.6c0,.8,0,1.5,0,2.3-5.5-.3-10.9-.6-16.4-1,0,0,0-.2,0-.2.2,0,.3-.2.5-.2,1.3-.1,2.6-.2,3.8-.3,2.5-.2,5-.3,7.4-.4,1.4,0,2.8-.1,4.2-.2.2,0,.3,0,.5,0Z"></path><path class="st0" d="M60,18.3c-.7-.3-1.4-.6-2.1-.9,2.4-5,4.7-10,7.3-14.9,0,0,.1,0,.2,0,0,.2,0,.4,0,.6-1.1,3.3-2.2,6.7-3.4,10-.6,1.7-1.2,3.4-1.8,5.2Z"></path><path class="st0" d="M29.4,9.5c4.4,3.4,8.4,7.2,12.5,10.8-.5.6-1.1,1.1-1.6,1.7-3.7-4.1-7.5-8.1-10.9-12.5Z"></path><path class="st0" d="M69.1,34c0-.7,0-1.4,0-2.2,5.5.3,11.1.5,16.5,1.1-.7.4-15.1,1.4-16.5,1.2Z"></path><path class="st0" d="M68.2,27.7c-.3-.7-.6-1.4-.9-2.2,5.2-1.8,10.4-3.8,15.7-5.3-4.8,2.8-9.9,5-14.9,7.4Z"></path><path class="st0" d="M22.3,20.2c5.3,1.4,10.5,3.4,15.7,5.2-.3.7-.6,1.4-.9,2.1-5-2.4-10-4.7-14.8-7.4Z"></path><path class="st0" d="M44.5,18.7c-.7.5-1.3.9-2,1.3-1-.8-1.7-1.7-1.8-3-.1-1.2-.4-2.3-1.4-3.2-.5-.5-1.1-1-1.5-1.6-.3-.5-.5-1.1-.6-1.6-.1-.8-.5-1.4-1.1-1.8-.8-.5-1-1.2-1-2.3.1.3.2.5.3.7.2.5.5,1,1.1,1.2.8.3,1.2,1,1.5,1.7.4,1.2,1.1,2.2,2.2,2.8,1,.6,1.7,1.6,1.9,2.7.2,1.3.7,2.3,1.9,2.8.1,0,.2.1.4.3Z"></path><path class="st0" d="M39.6,22.9c-.5.7-.9,1.3-1.3,2-1.3-.3-2.3-1-2.9-2.2-.7-1.4-1.7-2.2-3.2-2.6-1-.2-1.8-.9-2.3-1.8-.5-.8-1.1-1.3-2-1.5-.8-.2-1.3-.8-1.6-1.7.2.2.3.2.3.3.5.6,1,.9,1.8,1,.9,0,1.5.5,2,1.1.8.9,1.7,1.5,2.9,1.7,1.3.2,2.3.8,3,1.9.6,1,1.4,1.7,2.7,1.7.1,0,.3,0,.5.2Z"></path><path class="st0" d="M62.7,19.9c-.6-.4-1.1-.7-1.7-1.1-.3-.2-.3-.3-.2-.6.4-1.1,1.1-2,2.1-2.5,1.3-.7,2.2-1.7,2.6-3.1.3-1,.9-1.9,1.9-2.4.8-.4,1.2-1.1,1.4-2,.2-.8.8-1.3,1.5-1.6,0,0,.1.1.2.2-.1,0-.3.2-.4.3-.5.5-.8,1-.8,1.7,0,.8-.5,1.4-1.1,2-.9.7-1.5,1.6-1.6,2.7-.2,1.3-.8,2.4-1.8,3.1-1.1.7-1.8,1.5-1.8,2.8,0,.1,0,.3-.1.5Z"></path><path class="st0" d="M21.6,26.5c.2,0,.4.2.6.2.5.2,1.1.3,1.7,0,.8-.3,1.6-.2,2.3.2,1.1.5,2.1.8,3.3.5,1.3-.4,2.6,0,3.7.7.9.6,1.8.9,2.9.5.1,0,.2,0,.4,0,0,0,.2,0,.3,0-.1.7-.2,1.4-.4,2.1,0,.1-.3.2-.4.3-1.2,0-2.3-.3-3.3-1.1-1.1-.9-2.3-1.3-3.7-1.1-1.2.2-2.2-.2-3.2-.9-.6-.5-1.3-.6-2-.5-.9.2-1.6-.2-2.2-.9Z"></path><path class="st0" d="M69,30.9c-.2-.8-.3-1.4-.4-2.1,0-.1.2-.3.3-.4,1.1-.5,2.2-.6,3.3-.3,1.4.5,2.7.4,4-.4,1-.6,2-.7,3.1-.4.8.2,1.5.1,2.2-.3.8-.5,1.6-.4,2.4,0-.4,0-.8,0-1.1,0-.3,0-.7.2-1,.5-.6.5-1.2.8-2,.7-.4,0-.9,0-1.3,0-.7.1-1.4.3-1.9.6-1.4,1-2.8,1.3-4.4.9-.9-.2-1.6,0-2.3.6-.2.2-.5.3-.7.5Z"></path><path class="st0" d="M54.6,16.6c-.2-1.4.1-2.6,1-3.6.9-1,1.3-2.2,1.1-3.7-.2-1.2.1-2.2.9-3.2.5-.6.7-1.3.5-2.1-.2-.9.2-1.6.9-2.2-.1.3-.3.6-.4.9,0,.4,0,.9,0,1.3.2.8.2,1.6-.1,2.3-.6,1.2-.8,2.3-.5,3.7.3,1.2,0,2.4-.7,3.4-.7.9-1,1.9-.5,3,0,.2,0,.3,0,.5,0,0,0,0,0,.1-.7-.1-1.5-.3-2.2-.4Z"></path><path class="st0" d="M46.7,1.9c0,.2,0,.5,0,.7.1.4.2.9.5,1.2.6.7.9,1.5.8,2.5,0,1.2.2,2.3.9,3.2.8,1.1,1,2.4.7,3.8-.2,1,0,1.8.6,2.6.2.2.3.4.4.7-.7.2-1.4.3-2.1.5-.1,0-.3-.2-.4-.3-.5-1.1-.6-2.2-.3-3.3.5-1.4.4-2.7-.4-3.9-.6-.9-.7-1.9-.4-3,.2-.9.1-1.7-.4-2.5-.4-.7-.3-1.4,0-2.1Z"></path><path class="st0" d="M79,15.6c-.9.3-1.5.7-1.9,1.6-.3.6-.9,1-1.6,1.2-1.2.4-2.1,1-2.7,2.1-.7,1.2-1.9,1.9-3.3,2.1-1,.2-1.7.6-2.1,1.5-.1.2-.3.4-.5.7-.4-.6-.8-1.2-1.2-1.7,0-.1,0-.4.1-.6.9-1,2.1-1.4,3.4-1.5,1.2-.1,2.2-.7,2.9-1.6.7-1,1.7-1.6,2.9-1.7.8,0,1.5-.5,1.9-1.2.5-.7,1.2-1,2.1-.8Z"></path></g><g><g><path class="st0" d="M28.4,105.4c-.3,0-.6-.1-.9-.3-.6-.5-.6-1.3-.2-1.9l45-53.7c.5-.6,1.3-.6,1.9-.2.6.5.6,1.3.2,1.9l-45,53.7c-.3.3-.6.5-1,.5Z"></path><path class="st0" d="M24.2,118.4c-1.9,0-4-.6-6-2.3-5.4-4.5-3.7-10.7-3.6-10.9.2-.6.7-1,1.3-1s0,0,0,0c0,0,1.5,0,2.3-.9.7-.8.7-1.6.6-1.7-.1-.5,0-1,.5-1.4.2-.1,4.8-3.3,10.7,1.7,6,5,3.4,9.9,3.3,10.1-.2.4-.7.7-1.1.7-.4,0-1.4.2-2,.8-.5.6-.4,1.7-.4,2,0,.5-.1,1-.6,1.3-1.1.7-3,1.6-5.2,1.6ZM17.1,106.8c-.2,1.5-.1,4.7,2.9,7.3,3,2.5,6,1.5,7.3.9,0-.9.2-2.1,1.1-3.2.9-1,2.1-1.5,3-1.6.3-1.1.3-3.5-2.9-6.2-3.3-2.7-5.8-2.3-6.8-1.9,0,.8-.4,1.8-1.3,2.9-1,1.2-2.3,1.6-3.3,1.8ZM18.9,101.5h0Z"></path><path class="st0" d="M72.7,62.4c-.3,0-.6-.1-.9-.3l-4.9-4.1c-.6-.5-.6-1.3-.2-1.9.5-.6,1.3-.6,1.9-.2l4.9,4.1c.6.5.6,1.3.2,1.9-.3.3-.6.5-1,.5Z"></path><path class="st0" d="M71.8,67.4c-.3,0-.6-.1-.9-.3l-1.6-1.3c-.6-.5-.6-1.3-.2-1.9l5.7-6.8c.5-.6,1.3-.6,1.9-.2l2.7,2.3c.6.5.6,1.3.2,1.9-.5.6-1.3.6-1.9.2l-1.7-1.4-4,4.7.6.5c.6.5.6,1.3.2,1.9-.3.3-.6.5-1,.5Z"></path></g><g><path class="st0" d="M77.1,105.4c-.4,0-.8-.2-1-.5L31,51.2c-.5-.6-.4-1.4.2-1.9.6-.5,1.4-.4,1.9.2l45,53.7c.5.6.4,1.4-.2,1.9-.3.2-.6.3-.9.3Z"></path><path class="st0" d="M81.2,118.4c-2.2,0-4.2-.8-5.2-1.6-.4-.3-.6-.8-.6-1.3,0-.3,0-1.4-.4-2-.5-.6-1.6-.8-2-.8-.5,0-.9-.3-1.1-.7-.1-.2-2.7-5.1,3.3-10.1,5.9-5,10.5-1.9,10.7-1.7.5.3.7.8.5,1.4,0,.1,0,.9.6,1.7.8.9,2.3.9,2.3.9h0s0,0,0,0c.6,0,1.1.4,1.3,1,0,.3,1.8,6.4-3.6,10.9-2,1.7-4.1,2.3-6,2.3ZM78.2,114.9c1.3.6,4.3,1.6,7.3-.9,3-2.5,3.1-5.7,2.9-7.3-1-.2-2.3-.6-3.3-1.8-.9-1.1-1.2-2.1-1.3-2.9-1.1-.4-3.6-.8-6.8,1.9-3.2,2.7-3.1,5.1-2.9,6.2.9.2,2.1.6,3,1.6.9,1,1.1,2.3,1.1,3.2ZM84.4,102.3h0,0ZM86.5,101.5h0Z"></path><path class="st0" d="M32.7,62.4c-.4,0-.8-.2-1-.5-.5-.6-.4-1.4.2-1.9l4.9-4.1c.6-.5,1.4-.4,1.9.2.5.6.4,1.4-.2,1.9l-4.9,4.1c-.3.2-.6.3-.9.3Z"></path><path class="st0" d="M33.6,67.4c-.4,0-.8-.2-1-.5-.5-.6-.4-1.4.2-1.9l.6-.5-4-4.7-1.7,1.4c-.6.5-1.4.4-1.9-.2-.5-.6-.4-1.4.2-1.9l2.7-2.3c.6-.5,1.4-.4,1.9.2l5.7,6.8c.5.6.4,1.4-.2,1.9l-1.6,1.3c-.3.2-.6.3-.9.3Z"></path></g></g><path class="st0" d="M52.7,164.2c-.1,0-.2,0-.3,0-18.3-4.9-35.6-11.5-51.6-19.5-.5-.2-.7-.7-.7-1.2V41.7c0-.6.4-1.1,1-1.3.2,0,23.1-6.5,51.7-6.5s51.5,6.5,51.7,6.5c.6.2,1,.7,1,1.3v101.3c0,.5-.3.9-.7,1.2-14.3,7.9-31.2,14.4-51.7,20-.1,0-.2,0-.4,0ZM2.7,142.7c15.5,7.7,32.3,14.1,50,18.8,19.8-5.4,36.2-11.7,50-19.3V42.7c-4.6-1.2-25.1-6.2-50-6.2S7.3,41.5,2.7,42.7v99.9Z"></path><path class="st0" d="M52.7,154.3h0c-4.9,0-8.5-1-10.5-3.1-.9-.9-1.3-1.8-1.5-2.5-2.1-1.1-3.4-2.7-3.8-4.5-.5-2.6.8-5.1,1.7-6.3-.8-1.6-1-3.2-.6-4.6.4-1.6,1.5-2.7,2.2-3.4-.3-2.3.9-4.3,1.8-5.3-1.6-3-1-5.5-.3-7.1.5-1,1.1-1.7,1.6-2.2-.8-2.6.8-5.3,1.8-6.5-.6-1.4-.8-2.8-.4-4.2.4-1.7,1.6-2.8,2.3-3.4.3-4.6,3.5-5.9,5.2-5.9h.9c1.7,0,4.9,1.2,5.2,5.9.7.6,1.9,1.7,2.3,3.4.4,1.3.2,2.7-.4,4.2,1,1.3,2.7,3.9,1.8,6.5.5.5,1.1,1.2,1.6,2.2.8,1.6,1.3,4-.3,7.1.9,1,2.1,3,1.8,5.3.8.6,1.8,1.7,2.2,3.4.4,1.5.2,3-.6,4.6.8,1.2,2.2,3.7,1.7,6.3-.4,1.9-1.7,3.4-3.8,4.5-.2.7-.6,1.6-1.5,2.5-2,2-5.5,3.1-10.5,3.1ZM43.3,147.9c0,.1.1.9,1.1,1.7,1.1.9,3.4,2,8.3,2h0c4.9,0,7.2-1.1,8.3-2,1-.8,1.1-1.6,1.1-1.7,0-.5.3-1,.8-1.2,1.7-.8,2.7-1.8,2.9-3,.5-2.2-1.6-4.7-1.7-4.7-.4-.4-.4-1.1-.1-1.6.7-1.2,1-2.4.7-3.4-.4-1.5-1.8-2.3-1.8-2.3-.6-.3-.8-1-.6-1.6.7-2.2-1.5-4.2-1.5-4.2-.5-.4-.6-1.2-.3-1.7,2.8-4.4-.5-7-.9-7.3-.6-.4-.7-1.2-.4-1.8,1.2-2-1.6-5-1.6-5.1-.4-.4-.5-1.1-.2-1.6.6-1.1.8-2.1.6-3-.4-1.4-1.7-2.2-1.7-2.2-.4-.2-.7-.7-.7-1.2,0-3.8-2.4-3.9-2.5-3.9h-.9c-.4,0-2.5.3-2.5,3.9s-.3.9-.7,1.2c0,0-.8.5-1.4,1.4-.7,1.1-.6,2.3.3,3.8.3.5.2,1.2-.2,1.6,0,0-2.8,3.1-1.6,5.1.4.6.2,1.4-.4,1.8-.4.3-3.7,2.9-.9,7.3.4.6.3,1.3-.3,1.7,0,0-2.3,2.1-1.5,4.2.2.6,0,1.3-.6,1.6,0,0-1.4.8-1.8,2.3-.3,1,0,2.1.7,3.4.3.5.2,1.1-.1,1.6-.6.7-2.1,2.9-1.7,4.7.2,1.2,1.2,2.2,2.9,3,.5.2.8.7.8,1.2ZM62.1,147.9h0ZM43.3,147.9h0Z"></path><g><path class="st0" d="M47.8,162c-.2,0-.4,0-.6-.2-.7-.4-.9-1.2-.5-1.8,2.1-3.7,1.1-6.5,1.1-6.6-.3-.7,0-1.5.8-1.7.7-.3,1.5,0,1.7.8,0,.2,1.4,3.9-1.3,8.8-.2.4-.7.7-1.2.7Z"></path><path class="st0" d="M57.7,162c-.5,0-.9-.3-1.2-.7-2.7-4.9-1.3-8.7-1.3-8.8.3-.7,1-1,1.7-.8.7.3,1,1,.8,1.7,0,.1-1,2.9,1.1,6.6.4.7.1,1.5-.5,1.8-.2.1-.4.2-.6.2Z"></path></g></g><g><path class="st0" d="M17,87.3c0,0,0-.1,0-.2v-16.1c0,0,0-.1,0-.2,0,0,.1,0,.2,0h5.8c1.1,0,2.1.2,3,.6.9.4,1.5,1,2,1.7.5.7.7,1.6.7,2.6v6.9c0,1-.2,1.8-.7,2.6-.5.7-1.1,1.3-2,1.7-.9.4-1.9.6-3,.6h-5.8c0,0-.1,0-.2,0ZM19.9,85h3.3c.8,0,1.5-.3,2-.8.5-.5.8-1.2.8-2.1v-6c0-.9-.3-1.6-.8-2.2-.5-.5-1.2-.8-2.1-.8h-3.3c0,0-.1,0-.1.1v11.7c0,0,0,.1.1.1Z"></path><path class="st0" d="M86,71.2c.9.5,1.6,1.2,2.1,2,.5.9.7,1.9.7,3v5.7c0,1.4-.4,2.6-1.2,3.6-.8,1-1.9,1.6-3.2,1.9,0,0,0,0,0,.1v2c0,0,0,.1,0,.2,0,0-.1,0-.2,0h-2.2c0,0-.1,0-.2,0,0,0,0-.1,0-.2v-2c0,0,0-.1-.1-.1-1.3-.3-2.4-.9-3.2-1.9-.8-1-1.2-2.2-1.2-3.6v-5.7c0-1.1.2-2.2.7-3,.5-.9,1.2-1.5,2.1-2s1.9-.7,3.1-.7,2.2.2,3.1.7ZM86.1,76.1c0-1-.3-1.8-.9-2.3-.6-.6-1.3-.9-2.3-.9s-1.7.3-2.2.9c-.6.6-.9,1.4-.9,2.3v5.8c0,1,.3,1.8.9,2.3.6.6,1.3.9,2.2.9s1.7-.3,2.3-.9c.6-.6.9-1.4.9-2.3v-5.8Z"></path></g></g></svg> 