<?xml version="1.0" encoding="UTF-8"?> <svg xmlns="http://www.w3.org/2000/svg" id="Capa_1" version="1.1" viewBox="0 0 383.3 306.9"><defs><style> .st0 { fill: #5e1415; } </style></defs><path class="st0" d="M383.3,156.4c-2.9,6.8-8.1,9.1-15.4,9.1-62.2-.2-124.5-.1-186.7-.1h-4.7c-.4,1.1-.8,2.1-1.1,3.2-6.7,20.7-25.7,34.7-47.4,34.7s-40.6-13.7-47.3-34.3c-.9-2.9-2.1-3.8-5.2-3.7-21,.1-41.9.1-62.9,0-9.3,0-15.2-8.6-11.6-16.7,2.3-5.1,6.5-7.3,12-7.3h62.5c3,0,4.2-.9,5.1-3.7,6.7-20.5,26-34.3,47.3-34.2,21.6,0,40.6,14,47.4,34.7.3.9.6,1.9,1.1,3.2h4.3c62.4,0,124.7,0,187.1-.1,7.3,0,12.5,2.3,15.4,9.1v6h.1ZM153.8,153.5c0-14.3-11.5-25.9-25.8-26-14.1,0-26,11.7-26,25.9s11.7,26,25.9,26,25.9-11.6,25.9-25.9Z"></path><path class="st0" d="M383.3,259.7c-2.7,6.8-7.6,9.4-14.9,9.3-20.3-.3-40.7,0-61-.2-2.7,0-3.8.8-4.7,3.4-6.7,20.8-25.8,34.6-47.4,34.6s-40.6-13.9-47.2-34.8c-1-3.1-2.7-3.2-5.2-3.2H15.4c-2.1,0-4.3,0-6.3-.4-5.1-1.1-9-6.2-9-11.5s3.6-10.4,8.9-11.5c2-.5,4.2-.5,6.3-.5h186.7c3.6,0,5.3-.7,6.5-4.5,6.8-20.2,25.8-33.4,47.1-33.4s40.1,13.4,46.9,33.7c1.1,3.4,2.7,4.2,6.1,4.2,19.5-.2,38.9.1,58.4-.2,7.4-.1,13.1,1.8,16.4,8.8v6.2ZM229.6,257.1c0,14.3,11.6,25.9,25.9,25.9s25.9-11.7,25.9-25.9-11.7-25.8-26-25.8-25.8,11.5-25.8,25.9h0Z"></path><path class="st0" d="M383.3,53.1c-3.2,6.8-8.7,9-16,8.8-20-.3-39.9,0-59.9,0-2.4,0-3.7.4-4.5,3.1-6.8,21.1-25.8,34.8-47.7,34.7-21.7,0-40.4-13.8-47.2-34.8-.9-3-2.6-3-5-3H14.4c-7.7,0-12.2-2.9-13.9-8.8-2-7,2.8-14.2,10-15,1.7-.2,3.5,0,5.2,0h186c3.7,0,5.5-.7,6.8-4.6C215.4,13.1,234.7-.2,256.1,0c21.1.2,39.9,13.9,46.6,34.2.9,2.9,2.1,3.8,5.2,3.8,20.1-.2,40.2,0,60.2-.2,7.4,0,12.5,2.4,15.2,9.3v6h0ZM255.6,75.7c14.3,0,25.9-11.8,25.8-26,0-14.2-11.8-25.8-26.1-25.8s-25.8,11.7-25.7,26c0,14.4,11.6,25.8,26,25.7h0Z"></path></svg> 